<?xml version="1.0" encoding="utf-8"?>
<!-- Generator: Adobe Illustrator 21.1.0, SVG Export Plug-In . SVG Version: 6.00 Build 0)  -->
<svg version="1.1" id="Ebene_1" xmlns="http://www.w3.org/2000/svg" xmlns:xlink="http://www.w3.org/1999/xlink" x="0px" y="0px"
	 viewBox="0 0 307.7 90" style="enable-background:new 0 0 307.7 90;" xml:space="preserve">
<style type="text/css">
	.st0{fill:#00386D;}
</style>
<path class="st0" d="M15.3,29.4c0-2.8,4.1-5.9,11.8-5.9c4.6,0,13.6,0.8,14.7,8.6H56c-0.7-16.7-20.1-17.8-28.1-17.8
	c-8.7,0-26,1.9-26,16.7c0,11.9,8.5,13.7,24.5,15.9c14.7,1.9,16.9,3.4,16.9,7.4c0,4.9-7.4,6.7-14.2,6.7c-4.9,0-13.9-1.2-14.3-9H0
	c0.5,15.9,18.1,18.3,29.1,18.3c16.1,0,28.7-4.5,28.7-17.7c0-12.1-11.2-13.7-28.3-16.3C16.6,34.2,15.3,33.6,15.3,29.4 M88.2,69.3
	c4.1,0,6.8-0.2,10.4-0.7v-9.8c-3.3,0.1-6.4,0.2-9.7,0.2c-4.6,0-4.9-3.3-4.9-9.2V26h14.2v-9.8H84.1V0H70.5v16.1H59.7V26h10.8v27.7
	C70.5,63.4,71.8,69.3,88.2,69.3 M118.6,36.9c2.3-10.6,11-13.6,17.3-13.6c6.7,0,15.9,3.2,17.6,13.6H118.6z M118.6,45.6h49.1v-2.1
	c0-15.2-8.9-29.5-31.9-29.5c-18.4,0-31.3,11-31.3,28.5c0,13.8,8.7,27.5,32.1,27.5c19.8,0,26.9-11.5,29.8-17.2h-14.7
	c-2.7,4.4-6.5,7.5-15.5,7.5C122.9,60.3,119,51.3,118.6,45.6 M219.4,47.2c0,11.5-12.3,14.2-19.5,14.2c-4.6,0-10.9-1.3-10.9-8.1
	c0-4.4,2.4-6.7,12.6-7.9c9.6-1.1,13.8-1.6,17.7-3.3L219.4,47.2L219.4,47.2z M230.7,69.6c4.6,0,6.9-0.7,9.6-1.2v-9.5
	c-1.1,0.2-3.2,0.2-4.4,0.2c-0.8,0-2.9-0.1-2.9-2.9V31.7c0-6.8-0.7-17.5-28-17.5c-15.4,0-25.5,4.2-27.5,17.8h13.2
	c0.5-5.8,5.3-8.6,14.2-8.6c7.9,0,14.7,1.5,14.7,7.5c0,4-2.1,4.7-21.5,6.5c-8.6,0.7-23.4,2.1-23.4,16.4c0,10.2,7.6,16.3,21.2,16.3
	c15.2,0,21.8-4.6,24.4-7.2C220.9,64.9,221.8,69.6,230.7,69.6 M294.1,41c0,9.6-7.2,16.3-17.5,16.3c-14.2,0-18.9-8.5-18.9-16.1
	c0-9.3,7.5-15.9,17.7-15.9C282.5,25.2,294.1,28.5,294.1,41 M307.7,66.5V16h-13.6v7.6h-0.2c-3.2-5.5-10.9-8.9-21.5-8.9
	c-20,0-28.9,13.2-28.9,26.6c0,19.4,15.3,26.3,29,26.3c8,0,14.8-2.2,21.2-8.4h0.2v6.3c0,6.8-2.3,15.2-17.8,15.2h-3.4h-20H0.1V90
	h249.4h3.5h22.9h1.8C300,89.6,307.7,78.7,307.7,66.5"/>
</svg>
